<svg xmlns="http://www.w3.org/2000/svg" width="120" height="29" fill="none"><path fill="#000" d="M49.477 15.758h-2.961v-1.555h2.96c.516 0 .933-.083 1.25-.25.318-.166.55-.396.696-.687.15-.297.226-.636.226-1.016 0-.36-.075-.695-.226-1.008a1.727 1.727 0 0 0-.695-.765c-.318-.193-.735-.29-1.25-.29h-2.36V20h-1.96V8.625h4.32c.88 0 1.627.156 2.242.469.62.307 1.09.734 1.414 1.281.323.542.484 1.162.484 1.86 0 .734-.161 1.364-.484 1.89-.323.526-.794.93-1.414 1.21-.615.282-1.362.423-2.242.423ZM57.203 8v12h-1.89V8h1.89Zm6.828 10.305v-4.032c0-.302-.054-.562-.164-.78a1.149 1.149 0 0 0-.5-.509c-.219-.12-.495-.18-.828-.18-.307 0-.573.053-.797.157a1.288 1.288 0 0 0-.523.422 1.018 1.018 0 0 0-.188.601h-1.875c0-.333.081-.656.242-.968a2.59 2.59 0 0 1 .704-.836 3.51 3.51 0 0 1 1.101-.578 4.58 4.58 0 0 1 1.438-.211c.635 0 1.198.106 1.687.32.495.213.883.536 1.164.969.287.427.43.963.43 1.61v3.757c0 .385.026.732.078 1.039.057.302.138.565.242.789V20h-1.93a3.332 3.332 0 0 1-.21-.773 6.313 6.313 0 0 1-.07-.922Zm.274-3.446.015 1.164H62.97c-.35 0-.657.034-.922.102a1.893 1.893 0 0 0-.664.281 1.22 1.22 0 0 0-.399.453 1.326 1.326 0 0 0-.132.602c0 .224.052.43.156.617.104.182.255.326.453.43.203.104.448.156.734.156.386 0 .722-.078 1.008-.234.292-.162.521-.357.688-.586.166-.235.255-.456.265-.664l.61.836c-.063.213-.17.442-.32.687-.152.245-.35.48-.594.703a2.956 2.956 0 0 1-2.023.75c-.553 0-1.045-.11-1.477-.328a2.625 2.625 0 0 1-1.016-.898 2.33 2.33 0 0 1-.367-1.29c0-.447.083-.843.25-1.187.172-.349.422-.64.75-.875a3.63 3.63 0 0 1 1.218-.531 6.52 6.52 0 0 1 1.641-.188h1.477Zm5.914 4.22 2.297-7.532h2.015l-3.39 9.742c-.079.208-.18.435-.305.68a3.086 3.086 0 0 1-.492.695 2.186 2.186 0 0 1-.742.54c-.297.14-.657.21-1.079.21-.166 0-.328-.016-.484-.047a7.822 7.822 0 0 1-.43-.086l-.007-1.437.187.015c.078.006.14.008.188.008.312 0 .572-.039.78-.117.21-.073.378-.193.509-.36.135-.166.25-.39.343-.671l.61-1.64Zm-1.297-7.532 2.008 6.328.336 1.984-1.305.336-3.07-8.648h2.03Zm14.758 6.375 2.992-9.297h2.164L84.758 20h-1.461l.383-2.078Zm-2.766-9.297 2.969 9.297.406 2.078H82.82L78.758 8.625h2.156Zm11.023 2.922V20h-1.89v-8.453h1.89Zm-2.015-2.219c0-.286.094-.523.281-.71.193-.194.459-.29.797-.29.333 0 .596.096.79.29a.95.95 0 0 1 .288.71.94.94 0 0 1-.289.703c-.193.188-.456.281-.789.281-.338 0-.604-.093-.797-.28a.954.954 0 0 1-.281-.704Zm9.234 8.922V8h1.891v12h-1.711l-.18-1.75Zm-5.5-2.383v-.164c0-.64.076-1.224.227-1.75a4.12 4.12 0 0 1 .656-1.367c.287-.386.635-.68 1.047-.883a3.035 3.035 0 0 1 1.39-.312c.511 0 .959.099 1.344.296.386.198.714.482.985.852.27.365.487.802.648 1.313.162.505.276 1.067.344 1.687v.524a8.442 8.442 0 0 1-.344 1.656c-.161.5-.377.932-.648 1.297-.271.364-.602.646-.993.843-.385.198-.835.297-1.351.297-.51 0-.971-.107-1.383-.32a3.056 3.056 0 0 1-1.039-.898 4.23 4.23 0 0 1-.656-1.36 6.18 6.18 0 0 1-.227-1.71Zm1.883-.164v.164c0 .386.034.745.102 1.078.072.334.184.628.336.883.15.25.346.448.585.594.245.14.537.21.876.21.427 0 .778-.093 1.054-.28a1.92 1.92 0 0 0 .649-.758c.161-.323.27-.683.328-1.078v-1.414a3.453 3.453 0 0 0-.196-.86 2.297 2.297 0 0 0-.382-.695 1.613 1.613 0 0 0-.602-.469 1.885 1.885 0 0 0-.836-.172c-.344 0-.635.073-.875.219-.24.146-.437.346-.594.602a2.96 2.96 0 0 0-.336.89c-.072.339-.109.7-.109 1.086Zm11.203 4.453c-.625 0-1.19-.101-1.695-.304a3.741 3.741 0 0 1-1.281-.868 3.837 3.837 0 0 1-.805-1.304 4.558 4.558 0 0 1-.281-1.617v-.313c0-.662.096-1.26.289-1.797.192-.536.461-.995.804-1.375.344-.385.75-.68 1.219-.883a3.793 3.793 0 0 1 1.524-.304c.604 0 1.132.101 1.586.304.453.203.828.49 1.125.86.302.364.526.8.671 1.304.151.506.227 1.063.227 1.672v.805h-6.531v-1.352h4.672v-.148a2.636 2.636 0 0 0-.204-.953 1.612 1.612 0 0 0-.554-.719c-.25-.182-.584-.273-1-.273-.313 0-.591.067-.836.203-.24.13-.44.32-.602.57-.161.25-.286.552-.375.906a5.111 5.111 0 0 0-.125 1.18v.313c0 .37.05.713.149 1.03.104.313.255.587.453.821.198.234.437.42.719.555.281.13.601.195.961.195.453 0 .856-.091 1.21-.273.355-.183.662-.44.922-.774l.993.961c-.183.266-.42.521-.711.766a3.57 3.57 0 0 1-1.071.586c-.416.15-.901.226-1.453.226Zm4.492-4.289v-.18c0-.609.089-1.174.266-1.695.177-.526.432-.982.766-1.367.338-.39.75-.693 1.234-.906.49-.219 1.042-.328 1.656-.328.62 0 1.172.109 1.656.328.49.213.904.515 1.243.906.338.385.596.841.773 1.367.177.521.266 1.086.266 1.695v.18c0 .61-.089 1.175-.266 1.695-.177.521-.435.977-.773 1.368-.339.385-.75.687-1.235.906-.484.213-1.034.32-1.648.32-.62 0-1.175-.107-1.664-.32a3.584 3.584 0 0 1-1.235-.906 4.063 4.063 0 0 1-.773-1.367 5.237 5.237 0 0 1-.266-1.696Zm1.883-.18v.18c0 .38.039.74.117 1.078.078.339.201.636.368.89.166.256.38.457.64.602.261.146.57.22.93.22.349 0 .651-.074.906-.22.261-.145.474-.346.641-.601.166-.255.289-.552.367-.89.083-.34.125-.699.125-1.079v-.18c0-.374-.042-.729-.125-1.062a2.724 2.724 0 0 0-.375-.898 1.79 1.79 0 0 0-.641-.61c-.255-.15-.56-.226-.914-.226s-.661.075-.922.226a1.807 1.807 0 0 0-.632.61c-.167.26-.29.56-.368.898a4.652 4.652 0 0 0-.117 1.063Z"/><circle cx="14.5" cy="14.5" r="14.5" fill="#0082F4"/><path fill="#fff" d="M20.02 14.24a.3.3 0 0 1 0 .52l-8.055 4.65a.3.3 0 0 1-.45-.259V9.85a.3.3 0 0 1 .45-.26l8.056 4.651Z"/></svg>